<svg width="16" height="15" viewBox="0 0 16 15" fill="none" xmlns="http://www.w3.org/2000/svg">
<path d="M8.08 12.44L8 12.52L7.912 12.44C4.112 8.992 1.6 6.712 1.6 4.4C1.6 2.8 2.8 1.6 4.4 1.6C5.632 1.6 6.832 2.4 7.256 3.488H8.744C9.168 2.4 10.368 1.6 11.6 1.6C13.2 1.6 14.4 2.8 14.4 4.4C14.4 6.712 11.888 8.992 8.08 12.44ZM11.6 0C10.208 0 8.872 0.648 8 1.664C7.128 0.648 5.792 0 4.4 0C1.936 0 0 1.928 0 4.4C0 7.416 2.72 9.888 6.84 13.624L8 14.68L9.16 13.624C13.28 9.888 16 7.416 16 4.4C16 1.928 14.064 0 11.6 0Z" fill="black"/>
</svg>
